<svg xmlns="http://www.w3.org/2000/svg">
    <symbol id="icon-menu-mobile" viewBox="0 0 48 48" fill="none">
        <path fill-rule="evenodd" clip-rule="evenodd"
            d="M32 32H16C15.448 32 15 31.553 15 31C15 30.447 15.448 30 16 30H32C32.552 30 33 30.447 33 31C33 31.553 32.552 32 32 32Z"
            fill="var(--primary-600)" />
        <path fill-rule="evenodd" clip-rule="evenodd"
            d="M32 18H16C15.448 18 15 17.553 15 17C15 16.447 15.448 16 16 16H32C32.552 16 33 16.447 33 17C33 17.553 32.552 18 32 18Z"
            fill="var(--primary-600)" />
        <path fill-rule="evenodd" clip-rule="evenodd"
            d="M32 25H16C15.448 25 15 24.553 15 24C15 23.447 15.448 23 16 23H32C32.552 23 33 23.447 33 24C33 24.553 32.552 25 32 25Z"
            fill="var(--primary-600)" />
    </symbol>

    <symbol id="icon-close-menu-mobile" viewBox="0 0 48 48" fill="none">
        <path fill-rule="evenodd" clip-rule="evenodd"
            d="M28.6328 22.1805L21.3169 29.4377L19.9911 28.1225L27.3069 20.8652L28.6328 22.1805Z" fill="#A1A1AA" />
        <path fill-rule="evenodd" clip-rule="evenodd"
            d="M21.3122 20.8628L28.6329 28.1264L27.3069 29.4415L19.9862 22.1779L21.3122 20.8628Z" fill="#A1A1AA" />
        <path fill-rule="evenodd" clip-rule="evenodd"
            d="M11.8125 25.1632C11.8125 18.3149 17.4089 12.7632 24.3125 12.7632C31.216 12.7632 36.8125 18.3149 36.8125 25.1632C36.8125 32.0115 31.216 37.5632 24.3125 37.5632C17.4089 37.5632 11.8125 32.0115 11.8125 25.1632ZM24.3125 14.6232C18.4445 14.6232 13.6875 19.3421 13.6875 25.1632C13.6875 30.9843 18.4445 35.7032 24.3125 35.7032C30.1805 35.7032 34.9375 30.9843 34.9375 25.1632C34.9375 19.3421 30.1805 14.6232 24.3125 14.6232Z"
            fill="#A1A1AA" />

    </symbol>

    <symbol id="icon-search-header" viewBox="0 0 48 48" fill="none">
        <path fill-rule="evenodd" clip-rule="evenodd"
            d="M23.739 14C29.109 14 33.477 18.368 33.477 23.738C33.477 26.2715 32.5047 28.5823 30.9136 30.3165L34.0444 33.4407C34.3374 33.7337 34.3384 34.2077 34.0454 34.5007C33.8994 34.6487 33.7064 34.7217 33.5144 34.7217C33.3234 34.7217 33.1314 34.6487 32.9844 34.5027L29.8159 31.343C28.1491 32.6778 26.0357 33.477 23.739 33.477C18.369 33.477 14 29.108 14 23.738C14 18.368 18.369 14 23.739 14ZM23.739 15.5C19.196 15.5 15.5 19.195 15.5 23.738C15.5 28.281 19.196 31.977 23.739 31.977C28.281 31.977 31.977 28.281 31.977 23.738C31.977 19.195 28.281 15.5 23.739 15.5Z"
            fill="#71717A" />
    </symbol>

    <symbol id="icon-chevron-down-zinc" viewBox="0 0 48 48" fill="none">
        <path d="M31 20.5L24 27.5L17 20.5" stroke="#A1A1AA" stroke-width="1.5" stroke-linecap="round"
            stroke-linejoin="round" />
    </symbol>

    <symbol id="icon-chevron-down-primary" viewBox="0 0 48 48" fill="none">
        <path d="M31 20.5L24 27.5L17 20.5" stroke="var(--primary-600)" stroke-width="1.5" stroke-linecap="round"
            stroke-linejoin="round" />
    </symbol>

    <symbol id="icon-headphone" viewBox="0 0 48 48" fill="none">
            <path fill-rule="evenodd" clip-rule="evenodd" d="M17.4963 29.4735C17.9916 30.3317 19.0891 30.6265 19.9473 30.1303C20.8035 29.635 21.0973 28.5395 20.603 27.6813L19.0959 25.0708C18.6016 24.2136 17.5051 23.9198 16.6479 24.4131L16.4368 24.5347C15.8987 24.8451 15.6263 25.4843 15.8102 26.0778C16.1381 27.1355 16.6975 28.2738 17.4963 29.4735Z" stroke="var(--primary-600)" stroke-width="1.5" stroke-linecap="round" stroke-linejoin="round"/>
            <path fill-rule="evenodd" clip-rule="evenodd" d="M30.5088 29.4735C30.0135 30.3317 28.916 30.6265 28.0579 30.1303C27.2016 29.635 26.9078 28.5395 27.4021 27.6813L28.9092 25.0708C29.4035 24.2136 30.5 23.9198 31.3572 24.4131L31.5684 24.5347C32.1064 24.8451 32.3788 25.4843 32.1949 26.0778C31.8671 27.1355 31.3076 28.2738 30.5088 29.4735Z" stroke="var(--primary-600)" stroke-width="1.5" stroke-linecap="round" stroke-linejoin="round"/>
            <path d="M23.3633 32.9738C25.6595 32.9738 27.2873 33.4447 28.9326 30.3691" stroke="var(--primary-600)" stroke-width="1.5" stroke-linecap="round" stroke-linejoin="round"/>
            <path d="M31.8331 27.0367C32.304 25.9771 32.5686 24.7998 32.5686 23.5641C32.5686 18.8335 28.7283 15 23.9977 15C19.2739 15 15.4336 18.8335 15.4336 23.5641C15.4336 24.6383 15.6321 25.6677 15.9931 26.6105" stroke="var(--primary-600)" stroke-width="1.5" stroke-linecap="round" stroke-linejoin="round"/>
    </symbol>

    <symbol id="icon-location" viewBox="0 0 24 24" fill="none">
<path d="M8.8963 19.259C8.4323 19.2591 7.9728 19.1678 7.5441 18.9903C7.1154 18.8128 6.72589 18.5526 6.3978 18.2245C6.0697 17.8964 5.80946 17.5068 5.63196 17.0781C5.45445 16.6494 5.36315 16.1899 5.36328 15.726V14.652C5.36434 13.7149 5.73716 12.8164 6.3999 12.1539C7.06264 11.4913 7.96116 11.1188 8.89829 11.118H15.5173C16.055 11.1169 16.5706 10.9034 16.9516 10.5239C17.3326 10.1444 17.5481 9.62972 17.5513 9.09198V8.00195C17.5524 7.73439 17.5006 7.46925 17.3989 7.22174C17.2973 6.97423 17.1478 6.74919 16.959 6.55957C16.7702 6.36995 16.5459 6.21949 16.2988 6.11676C16.0518 6.01403 15.7869 5.96107 15.5193 5.96094H15.5143L8.38428 5.97693C8.18537 5.97693 7.99463 5.89792 7.85397 5.75726C7.71332 5.61661 7.63428 5.42584 7.63428 5.22693C7.63428 5.02802 7.71332 4.83731 7.85397 4.69666C7.99463 4.556 8.18537 4.47693 8.38428 4.47693L15.5143 4.46094C16.4516 4.47673 17.348 4.84774 18.0223 5.49896C18.3526 5.82744 18.614 6.21858 18.7913 6.64941C18.9685 7.08025 19.0579 7.54209 19.0543 8.00793V9.09796C19.049 10.0323 18.6746 10.9267 18.0125 11.5861C17.3505 12.2454 16.4547 12.6164 15.5203 12.618H8.90128C8.3619 12.6185 7.84475 12.8329 7.46326 13.2142C7.08176 13.5955 6.8671 14.1126 6.8663 14.652V15.726C6.86604 15.9931 6.91846 16.2577 7.0206 16.5045C7.12274 16.7514 7.27258 16.9756 7.46152 17.1644C7.65046 17.3533 7.87478 17.503 8.12167 17.605C8.36856 17.7071 8.63316 17.7594 8.9003 17.759L12.8343 17.754C13.0332 17.754 13.224 17.833 13.3646 17.9736C13.5053 18.1143 13.5843 18.3051 13.5843 18.504C13.5843 18.7029 13.5053 18.8936 13.3646 19.0343C13.224 19.175 13.0332 19.254 12.8343 19.254L8.9003 19.259H8.8963Z" fill="var(--primary-600)"/>
<path d="M6.16449 8.16376C5.77464 8.16502 5.38839 8.08918 5.02798 7.94055C4.66758 7.79193 4.34012 7.57344 4.06448 7.29774C3.78894 7.02255 3.57035 6.69573 3.4212 6.33601C3.27206 5.97627 3.19531 5.59067 3.19531 5.20124C3.19531 4.81182 3.27206 4.42621 3.4212 4.06648C3.57035 3.70674 3.78894 3.37993 4.06448 3.10474C4.62917 2.5661 5.37961 2.26562 6.16 2.26562C6.94039 2.26562 7.6908 2.5661 8.25549 3.10474C8.67095 3.51918 8.95395 4.0477 9.06857 4.62323C9.18319 5.19877 9.12427 5.79536 8.89929 6.33735C8.67431 6.87933 8.2934 7.34232 7.8049 7.66749C7.3164 7.99266 6.74231 8.16536 6.15549 8.16376H6.16449ZM5.12949 6.23677C5.40412 6.51139 5.77662 6.66566 6.16501 6.66566C6.5534 6.66566 6.92587 6.51139 7.2005 6.23677C7.47513 5.96213 7.62943 5.58963 7.62943 5.20124C7.62943 4.81284 7.47513 4.44041 7.2005 4.16578C6.92149 3.89955 6.55066 3.75098 6.16501 3.75098C5.77936 3.75098 5.4085 3.89955 5.12949 4.16578C4.99345 4.30174 4.88555 4.46314 4.81192 4.64082C4.73829 4.81849 4.70041 5.00891 4.70041 5.20124C4.70041 5.39357 4.73829 5.58405 4.81192 5.76173C4.88555 5.9394 4.99345 6.10081 5.12949 6.23677Z" fill="var(--primary-600)"/>
<path d="M16.743 21.7326C16.5635 21.7328 16.3857 21.6975 16.2198 21.629C16.0539 21.5604 15.9031 21.4598 15.7761 21.333C15.6491 21.2061 15.5483 21.0555 15.4795 20.8897C15.4107 20.7239 15.3752 20.5461 15.375 20.3666V16.5926C15.3736 16.3513 15.4367 16.114 15.5579 15.9053C15.679 15.6966 15.8538 15.5241 16.0641 15.4056C16.2738 15.2864 16.5113 15.2247 16.7525 15.2266C16.9938 15.2285 17.2302 15.2941 17.438 15.4167L20.638 17.3077C20.8411 17.4284 21.0093 17.5999 21.1261 17.8053C21.2429 18.0107 21.3044 18.2429 21.3044 18.4792C21.3044 18.7154 21.2429 18.9476 21.1261 19.153C21.0093 19.3584 20.8411 19.5299 20.638 19.6507L17.438 21.5436C17.2275 21.6677 16.9874 21.733 16.743 21.7326ZM16.876 16.8266V20.1327L19.676 18.4797L16.876 16.8266Z" fill="var(--primary-600)"/>
    </symbol>

    <symbol id="icon-phone" viewBox="0 0 24 24" fill="none">
<path fill-rule="evenodd" clip-rule="evenodd" d="M11.2899 12.7136C15.0688 16.4916 16.1923 11.8542 18.5985 14.2584C20.9187 16.5776 22.2519 17.0424 19.3136 19.9807C18.9447 20.2764 16.6057 23.8368 8.38524 15.6183C0.164742 7.39977 3.72116 5.05784 4.01686 4.68994C6.96307 1.74374 7.41998 3.08481 9.74016 5.403C12.1454 7.80922 7.51097 8.93568 11.2899 12.7136Z" stroke="var(--primary-600)" stroke-width="1.5" stroke-linecap="round" stroke-linejoin="round"/>
<path d="M15.7754 8.26208V4.03711M19.1466 8.26208V4.03711" stroke="var(--primary-600)" stroke-width="1.5" stroke-linecap="round" stroke-linejoin="round"/>
    </symbol>

    <symbol id="icon-phone" viewBox="0 0 24 24" fill="none">
<path d="M6.76052 20.3302C6.63421 20.3304 6.50991 20.2986 6.39922 20.2377C6.28854 20.1768 6.19507 20.089 6.12753 19.9822L3.42753 15.7242C3.03578 15.1803 2.75808 14.5627 2.61114 13.9087C2.4642 13.2547 2.45105 12.5777 2.57249 11.9185C2.69393 11.2592 2.94744 10.6314 3.31779 10.0726C3.68813 9.51393 4.16766 9.03588 4.72752 8.66724L11.4275 4.39824C11.9994 4.04894 12.6358 3.81862 13.2987 3.72105C13.9617 3.62348 14.6375 3.66068 15.2857 3.83042C15.934 4.00015 16.5413 4.29894 17.0713 4.70888C17.6014 5.11883 18.0433 5.63152 18.3705 6.21624L21.0885 10.5102C21.4882 11.1099 21.7647 11.783 21.902 12.4904C22.0394 13.1979 22.0348 13.9256 21.8885 14.6312C21.7537 15.2353 21.4982 15.8058 21.1373 16.3086C20.7764 16.8115 20.3176 17.2362 19.7885 17.5572L15.8345 20.0762C15.7515 20.1356 15.6572 20.1773 15.5574 20.1989C15.4577 20.2206 15.3545 20.2216 15.2544 20.202C15.1542 20.1823 15.0591 20.1425 14.9748 20.0848C14.8906 20.0271 14.819 19.9529 14.7645 19.8666C14.71 19.7803 14.6737 19.6838 14.6577 19.583C14.6418 19.4821 14.6466 19.3791 14.6719 19.2802C14.6972 19.1813 14.7424 19.0886 14.8047 19.0078C14.8671 18.927 14.9453 18.8598 15.0345 18.8102L18.9965 16.2932C19.3574 16.0757 19.6707 15.7874 19.9175 15.4458C20.1642 15.1042 20.3394 14.7162 20.4325 14.3052C20.5343 13.7918 20.533 13.2633 20.4288 12.7503C20.3246 12.2374 20.1195 11.7503 19.8255 11.3172L17.1075 7.02324C16.8865 6.60462 16.5823 6.23554 16.2136 5.9386C15.8449 5.64166 15.4194 5.42311 14.9633 5.29635C14.5072 5.16959 14.03 5.13728 13.5609 5.2014C13.0919 5.26552 12.6409 5.42471 12.2355 5.66924L5.53552 9.93724C5.14107 10.1999 4.80463 10.5406 4.54691 10.9384C4.2892 11.3361 4.11568 11.7824 4.03707 12.2497C3.95846 12.7171 3.97642 13.1956 4.08984 13.6557C4.20325 14.1159 4.40973 14.5479 4.69653 14.9252L7.39652 19.1822C7.46761 19.2958 7.50699 19.4263 7.51057 19.5602C7.51415 19.6941 7.48179 19.8265 7.41688 19.9437C7.35196 20.0609 7.25685 20.1585 7.14143 20.2265C7.026 20.2945 6.89448 20.3303 6.76052 20.3302Z" fill="var(--primary-600)"/>
<path d="M11.7305 14.6028C11.6463 14.603 11.5622 14.5986 11.4785 14.5898L7.4415 14.1318C7.34186 14.123 7.24499 14.0943 7.1566 14.0475C7.06822 14.0006 6.9901 13.9366 6.92683 13.8591C6.86357 13.7816 6.81646 13.6922 6.78825 13.5963C6.76005 13.5003 6.75132 13.3997 6.76259 13.3003C6.77386 13.2009 6.80491 13.1047 6.8539 13.0175C6.90288 12.9303 6.96881 12.8538 7.04782 12.7924C7.12683 12.7311 7.21732 12.6861 7.31395 12.6603C7.41058 12.6344 7.5114 12.6282 7.61049 12.6418L11.6405 13.0988C11.8355 13.1187 12.0314 13.072 12.1965 12.9663C12.3615 12.8606 12.4859 12.7022 12.5495 12.5168L13.8245 8.69585C13.8876 8.50714 14.0231 8.35125 14.2012 8.26245C14.3792 8.17365 14.5853 8.15922 14.774 8.22234C14.9627 8.28547 15.1186 8.42096 15.2074 8.59903C15.2962 8.7771 15.3106 8.98314 15.2475 9.17184L13.9685 12.9998C13.8098 13.4674 13.5086 13.8736 13.1072 14.1611C12.7057 14.4486 12.2243 14.6031 11.7305 14.6028Z" fill="var(--primary-600)"/>
<path d="M21.2598 20.3301H3.25977C3.06085 20.3301 2.87008 20.2511 2.72943 20.1104C2.58878 19.9698 2.50977 19.779 2.50977 19.5801C2.50977 19.3812 2.58878 19.1904 2.72943 19.0497C2.87008 18.9091 3.06085 18.8301 3.25977 18.8301H21.2598C21.4587 18.8301 21.6494 18.9091 21.7901 19.0497C21.9308 19.1904 22.0098 19.3812 22.0098 19.5801C22.0098 19.779 21.9308 19.9698 21.7901 20.1104C21.6494 20.2511 21.4587 20.3301 21.2598 20.3301Z" fill="var(--primary-600)"/>

    </symbol>


</svg>