<svg xmlns="http://www.w3.org/2000/svg">
    <symbol id="icon-menu-mobile" viewBox="0 0 48 48" fill="none">
        <path fill-rule="evenodd" clip-rule="evenodd"
            d="M32 32H16C15.448 32 15 31.553 15 31C15 30.447 15.448 30 16 30H32C32.552 30 33 30.447 33 31C33 31.553 32.552 32 32 32Z"
            fill="var(--primary-600)" />
        <path fill-rule="evenodd" clip-rule="evenodd"
            d="M32 18H16C15.448 18 15 17.553 15 17C15 16.447 15.448 16 16 16H32C32.552 16 33 16.447 33 17C33 17.553 32.552 18 32 18Z"
            fill="var(--primary-600)" />
        <path fill-rule="evenodd" clip-rule="evenodd"
            d="M32 25H16C15.448 25 15 24.553 15 24C15 23.447 15.448 23 16 23H32C32.552 23 33 23.447 33 24C33 24.553 32.552 25 32 25Z"
            fill="var(--primary-600)" />
    </symbol>

    <symbol id="icon-close-menu-mobile" viewBox="0 0 48 48" fill="none">
        <path fill-rule="evenodd" clip-rule="evenodd"
            d="M28.6328 22.1805L21.3169 29.4377L19.9911 28.1225L27.3069 20.8652L28.6328 22.1805Z" fill="#A1A1AA" />
        <path fill-rule="evenodd" clip-rule="evenodd"
            d="M21.3122 20.8628L28.6329 28.1264L27.3069 29.4415L19.9862 22.1779L21.3122 20.8628Z" fill="#A1A1AA" />
        <path fill-rule="evenodd" clip-rule="evenodd"
            d="M11.8125 25.1632C11.8125 18.3149 17.4089 12.7632 24.3125 12.7632C31.216 12.7632 36.8125 18.3149 36.8125 25.1632C36.8125 32.0115 31.216 37.5632 24.3125 37.5632C17.4089 37.5632 11.8125 32.0115 11.8125 25.1632ZM24.3125 14.6232C18.4445 14.6232 13.6875 19.3421 13.6875 25.1632C13.6875 30.9843 18.4445 35.7032 24.3125 35.7032C30.1805 35.7032 34.9375 30.9843 34.9375 25.1632C34.9375 19.3421 30.1805 14.6232 24.3125 14.6232Z"
            fill="#A1A1AA" />

    </symbol>

    <symbol id="icon-search-header" viewBox="0 0 48 48" fill="none">
        <path fill-rule="evenodd" clip-rule="evenodd"
            d="M23.739 14C29.109 14 33.477 18.368 33.477 23.738C33.477 26.2715 32.5047 28.5823 30.9136 30.3165L34.0444 33.4407C34.3374 33.7337 34.3384 34.2077 34.0454 34.5007C33.8994 34.6487 33.7064 34.7217 33.5144 34.7217C33.3234 34.7217 33.1314 34.6487 32.9844 34.5027L29.8159 31.343C28.1491 32.6778 26.0357 33.477 23.739 33.477C18.369 33.477 14 29.108 14 23.738C14 18.368 18.369 14 23.739 14ZM23.739 15.5C19.196 15.5 15.5 19.195 15.5 23.738C15.5 28.281 19.196 31.977 23.739 31.977C28.281 31.977 31.977 28.281 31.977 23.738C31.977 19.195 28.281 15.5 23.739 15.5Z"
            fill="#71717A" />
    </symbol>

    <symbol id="icon-chevron-down-zinc" viewBox="0 0 48 48" fill="none">
        <path d="M31 20.5L24 27.5L17 20.5" stroke="#A1A1AA" stroke-width="1.5" stroke-linecap="round"
            stroke-linejoin="round" />
    </symbol>

    <symbol id="icon-chevron-down-primary" viewBox="0 0 48 48" fill="none">
        <path d="M31 20.5L24 27.5L17 20.5" stroke="var(--primary-600)" stroke-width="1.5" stroke-linecap="round"
            stroke-linejoin="round" />
    </symbol>

    <symbol id="icon-headphone" viewBox="0 0 48 48" fill="none">
            <path fill-rule="evenodd" clip-rule="evenodd" d="M17.4963 29.4735C17.9916 30.3317 19.0891 30.6265 19.9473 30.1303C20.8035 29.635 21.0973 28.5395 20.603 27.6813L19.0959 25.0708C18.6016 24.2136 17.5051 23.9198 16.6479 24.4131L16.4368 24.5347C15.8987 24.8451 15.6263 25.4843 15.8102 26.0778C16.1381 27.1355 16.6975 28.2738 17.4963 29.4735Z" stroke="var(--primary-600)" stroke-width="1.5" stroke-linecap="round" stroke-linejoin="round"/>
            <path fill-rule="evenodd" clip-rule="evenodd" d="M30.5088 29.4735C30.0135 30.3317 28.916 30.6265 28.0579 30.1303C27.2016 29.635 26.9078 28.5395 27.4021 27.6813L28.9092 25.0708C29.4035 24.2136 30.5 23.9198 31.3572 24.4131L31.5684 24.5347C32.1064 24.8451 32.3788 25.4843 32.1949 26.0778C31.8671 27.1355 31.3076 28.2738 30.5088 29.4735Z" stroke="var(--primary-600)" stroke-width="1.5" stroke-linecap="round" stroke-linejoin="round"/>
            <path d="M23.3633 32.9738C25.6595 32.9738 27.2873 33.4447 28.9326 30.3691" stroke="var(--primary-600)" stroke-width="1.5" stroke-linecap="round" stroke-linejoin="round"/>
            <path d="M31.8331 27.0367C32.304 25.9771 32.5686 24.7998 32.5686 23.5641C32.5686 18.8335 28.7283 15 23.9977 15C19.2739 15 15.4336 18.8335 15.4336 23.5641C15.4336 24.6383 15.6321 25.6677 15.9931 26.6105" stroke="var(--primary-600)" stroke-width="1.5" stroke-linecap="round" stroke-linejoin="round"/>
    </symbol>

    <symbol id="icon-location" viewBox="0 0 24 24" fill="none">
<path d="M8.8963 19.259C8.4323 19.2591 7.9728 19.1678 7.5441 18.9903C7.1154 18.8128 6.72589 18.5526 6.3978 18.2245C6.0697 17.8964 5.80946 17.5068 5.63196 17.0781C5.45445 16.6494 5.36315 16.1899 5.36328 15.726V14.652C5.36434 13.7149 5.73716 12.8164 6.3999 12.1539C7.06264 11.4913 7.96116 11.1188 8.89829 11.118H15.5173C16.055 11.1169 16.5706 10.9034 16.9516 10.5239C17.3326 10.1444 17.5481 9.62972 17.5513 9.09198V8.00195C17.5524 7.73439 17.5006 7.46925 17.3989 7.22174C17.2973 6.97423 17.1478 6.74919 16.959 6.55957C16.7702 6.36995 16.5459 6.21949 16.2988 6.11676C16.0518 6.01403 15.7869 5.96107 15.5193 5.96094H15.5143L8.38428 5.97693C8.18537 5.97693 7.99463 5.89792 7.85397 5.75726C7.71332 5.61661 7.63428 5.42584 7.63428 5.22693C7.63428 5.02802 7.71332 4.83731 7.85397 4.69666C7.99463 4.556 8.18537 4.47693 8.38428 4.47693L15.5143 4.46094C16.4516 4.47673 17.348 4.84774 18.0223 5.49896C18.3526 5.82744 18.614 6.21858 18.7913 6.64941C18.9685 7.08025 19.0579 7.54209 19.0543 8.00793V9.09796C19.049 10.0323 18.6746 10.9267 18.0125 11.5861C17.3505 12.2454 16.4547 12.6164 15.5203 12.618H8.90128C8.3619 12.6185 7.84475 12.8329 7.46326 13.2142C7.08176 13.5955 6.8671 14.1126 6.8663 14.652V15.726C6.86604 15.9931 6.91846 16.2577 7.0206 16.5045C7.12274 16.7514 7.27258 16.9756 7.46152 17.1644C7.65046 17.3533 7.87478 17.503 8.12167 17.605C8.36856 17.7071 8.63316 17.7594 8.9003 17.759L12.8343 17.754C13.0332 17.754 13.224 17.833 13.3646 17.9736C13.5053 18.1143 13.5843 18.3051 13.5843 18.504C13.5843 18.7029 13.5053 18.8936 13.3646 19.0343C13.224 19.175 13.0332 19.254 12.8343 19.254L8.9003 19.259H8.8963Z" fill="var(--primary-600)"/>
<path d="M6.16449 8.16376C5.77464 8.16502 5.38839 8.08918 5.02798 7.94055C4.66758 7.79193 4.34012 7.57344 4.06448 7.29774C3.78894 7.02255 3.57035 6.69573 3.4212 6.33601C3.27206 5.97627 3.19531 5.59067 3.19531 5.20124C3.19531 4.81182 3.27206 4.42621 3.4212 4.06648C3.57035 3.70674 3.78894 3.37993 4.06448 3.10474C4.62917 2.5661 5.37961 2.26562 6.16 2.26562C6.94039 2.26562 7.6908 2.5661 8.25549 3.10474C8.67095 3.51918 8.95395 4.0477 9.06857 4.62323C9.18319 5.19877 9.12427 5.79536 8.89929 6.33735C8.67431 6.87933 8.2934 7.34232 7.8049 7.66749C7.3164 7.99266 6.74231 8.16536 6.15549 8.16376H6.16449ZM5.12949 6.23677C5.40412 6.51139 5.77662 6.66566 6.16501 6.66566C6.5534 6.66566 6.92587 6.51139 7.2005 6.23677C7.47513 5.96213 7.62943 5.58963 7.62943 5.20124C7.62943 4.81284 7.47513 4.44041 7.2005 4.16578C6.92149 3.89955 6.55066 3.75098 6.16501 3.75098C5.77936 3.75098 5.4085 3.89955 5.12949 4.16578C4.99345 4.30174 4.88555 4.46314 4.81192 4.64082C4.73829 4.81849 4.70041 5.00891 4.70041 5.20124C4.70041 5.39357 4.73829 5.58405 4.81192 5.76173C4.88555 5.9394 4.99345 6.10081 5.12949 6.23677Z" fill="var(--primary-600)"/>
<path d="M16.743 21.7326C16.5635 21.7328 16.3857 21.6975 16.2198 21.629C16.0539 21.5604 15.9031 21.4598 15.7761 21.333C15.6491 21.2061 15.5483 21.0555 15.4795 20.8897C15.4107 20.7239 15.3752 20.5461 15.375 20.3666V16.5926C15.3736 16.3513 15.4367 16.114 15.5579 15.9053C15.679 15.6966 15.8538 15.5241 16.0641 15.4056C16.2738 15.2864 16.5113 15.2247 16.7525 15.2266C16.9938 15.2285 17.2302 15.2941 17.438 15.4167L20.638 17.3077C20.8411 17.4284 21.0093 17.5999 21.1261 17.8053C21.2429 18.0107 21.3044 18.2429 21.3044 18.4792C21.3044 18.7154 21.2429 18.9476 21.1261 19.153C21.0093 19.3584 20.8411 19.5299 20.638 19.6507L17.438 21.5436C17.2275 21.6677 16.9874 21.733 16.743 21.7326ZM16.876 16.8266V20.1327L19.676 18.4797L16.876 16.8266Z" fill="var(--primary-600)"/>
    </symbol>

    <symbol id="icon-phone" viewBox="0 0 24 24" fill="none">
<path fill-rule="evenodd" clip-rule="evenodd" d="M11.2899 12.7136C15.0688 16.4916 16.1923 11.8542 18.5985 14.2584C20.9187 16.5776 22.2519 17.0424 19.3136 19.9807C18.9447 20.2764 16.6057 23.8368 8.38524 15.6183C0.164742 7.39977 3.72116 5.05784 4.01686 4.68994C6.96307 1.74374 7.41998 3.08481 9.74016 5.403C12.1454 7.80922 7.51097 8.93568 11.2899 12.7136Z" stroke="var(--primary-600)" stroke-width="1.5" stroke-linecap="round" stroke-linejoin="round"/>
<path d="M15.7754 8.26208V4.03711M19.1466 8.26208V4.03711" stroke="var(--primary-600)" stroke-width="1.5" stroke-linecap="round" stroke-linejoin="round"/>
    </symbol>

    <symbol id="icon-mail" viewBox="0 0 24 24" fill="none">
<path d="M6.76052 20.3302C6.63421 20.3304 6.50991 20.2986 6.39922 20.2377C6.28854 20.1768 6.19507 20.089 6.12753 19.9822L3.42753 15.7242C3.03578 15.1803 2.75808 14.5627 2.61114 13.9087C2.4642 13.2547 2.45105 12.5777 2.57249 11.9185C2.69393 11.2592 2.94744 10.6314 3.31779 10.0726C3.68813 9.51393 4.16766 9.03588 4.72752 8.66724L11.4275 4.39824C11.9994 4.04894 12.6358 3.81862 13.2987 3.72105C13.9617 3.62348 14.6375 3.66068 15.2857 3.83042C15.934 4.00015 16.5413 4.29894 17.0713 4.70888C17.6014 5.11883 18.0433 5.63152 18.3705 6.21624L21.0885 10.5102C21.4882 11.1099 21.7647 11.783 21.902 12.4904C22.0394 13.1979 22.0348 13.9256 21.8885 14.6312C21.7537 15.2353 21.4982 15.8058 21.1373 16.3086C20.7764 16.8115 20.3176 17.2362 19.7885 17.5572L15.8345 20.0762C15.7515 20.1356 15.6572 20.1773 15.5574 20.1989C15.4577 20.2206 15.3545 20.2216 15.2544 20.202C15.1542 20.1823 15.0591 20.1425 14.9748 20.0848C14.8906 20.0271 14.819 19.9529 14.7645 19.8666C14.71 19.7803 14.6737 19.6838 14.6577 19.583C14.6418 19.4821 14.6466 19.3791 14.6719 19.2802C14.6972 19.1813 14.7424 19.0886 14.8047 19.0078C14.8671 18.927 14.9453 18.8598 15.0345 18.8102L18.9965 16.2932C19.3574 16.0757 19.6707 15.7874 19.9175 15.4458C20.1642 15.1042 20.3394 14.7162 20.4325 14.3052C20.5343 13.7918 20.533 13.2633 20.4288 12.7503C20.3246 12.2374 20.1195 11.7503 19.8255 11.3172L17.1075 7.02324C16.8865 6.60462 16.5823 6.23554 16.2136 5.9386C15.8449 5.64166 15.4194 5.42311 14.9633 5.29635C14.5072 5.16959 14.03 5.13728 13.5609 5.2014C13.0919 5.26552 12.6409 5.42471 12.2355 5.66924L5.53552 9.93724C5.14107 10.1999 4.80463 10.5406 4.54691 10.9384C4.2892 11.3361 4.11568 11.7824 4.03707 12.2497C3.95846 12.7171 3.97642 13.1956 4.08984 13.6557C4.20325 14.1159 4.40973 14.5479 4.69653 14.9252L7.39652 19.1822C7.46761 19.2958 7.50699 19.4263 7.51057 19.5602C7.51415 19.6941 7.48179 19.8265 7.41688 19.9437C7.35196 20.0609 7.25685 20.1585 7.14143 20.2265C7.026 20.2945 6.89448 20.3303 6.76052 20.3302Z" fill="var(--primary-600)"/>
<path d="M11.7305 14.6028C11.6463 14.603 11.5622 14.5986 11.4785 14.5898L7.4415 14.1318C7.34186 14.123 7.24499 14.0943 7.1566 14.0475C7.06822 14.0006 6.9901 13.9366 6.92683 13.8591C6.86357 13.7816 6.81646 13.6922 6.78825 13.5963C6.76005 13.5003 6.75132 13.3997 6.76259 13.3003C6.77386 13.2009 6.80491 13.1047 6.8539 13.0175C6.90288 12.9303 6.96881 12.8538 7.04782 12.7924C7.12683 12.7311 7.21732 12.6861 7.31395 12.6603C7.41058 12.6344 7.5114 12.6282 7.61049 12.6418L11.6405 13.0988C11.8355 13.1187 12.0314 13.072 12.1965 12.9663C12.3615 12.8606 12.4859 12.7022 12.5495 12.5168L13.8245 8.69585C13.8876 8.50714 14.0231 8.35125 14.2012 8.26245C14.3792 8.17365 14.5853 8.15922 14.774 8.22234C14.9627 8.28547 15.1186 8.42096 15.2074 8.59903C15.2962 8.7771 15.3106 8.98314 15.2475 9.17184L13.9685 12.9998C13.8098 13.4674 13.5086 13.8736 13.1072 14.1611C12.7057 14.4486 12.2243 14.6031 11.7305 14.6028Z" fill="var(--primary-600)"/>
<path d="M21.2598 20.3301H3.25977C3.06085 20.3301 2.87008 20.2511 2.72943 20.1104C2.58878 19.9698 2.50977 19.779 2.50977 19.5801C2.50977 19.3812 2.58878 19.1904 2.72943 19.0497C2.87008 18.9091 3.06085 18.8301 3.25977 18.8301H21.2598C21.4587 18.8301 21.6494 18.9091 21.7901 19.0497C21.9308 19.1904 22.0098 19.3812 22.0098 19.5801C22.0098 19.779 21.9308 19.9698 21.7901 20.1104C21.6494 20.2511 21.4587 20.3301 21.2598 20.3301Z" fill="var(--primary-600)"/>

    </symbol>

    <symbol id="icon-chevron-left" viewBox="0 0 48 48" fill="none">
<path d="M26.4693 17.4243C26.6877 17.6272 26.719 17.9562 26.5552 18.1948L26.5002 18.2634L21.5704 23.5701L26.8767 28.5002C27.0951 28.7031 27.1264 29.032 26.9626 29.2706L26.9076 29.3393C26.7047 29.5577 26.3758 29.589 26.1371 29.4252L26.0685 29.3702L20.3269 24.0359C20.1085 23.833 20.0772 23.5041 20.241 23.2655L20.296 23.1968L25.6302 17.4552C25.8534 17.2149 26.2291 17.2011 26.4693 17.4243Z" fill="var(--primary-600)"/>
    </symbol>

    <symbol id="icon-facebook" viewBox="0 0 10 16" fill="none">
<path d="M3.25884 15.1967L3.23864 8.89978H0.59668V6.20109H3.23864V4.40196C3.23864 1.97386 4.71066 0.803711 6.83116 0.803711C7.8469 0.803711 8.71989 0.880956 8.97429 0.915482V3.45299L7.50361 3.45367C6.35037 3.45367 6.12707 4.01344 6.12707 4.83487V6.20109H9.40322L8.52257 8.89978H6.12706V15.1967H3.25884Z" fill="white"/>
    </symbol>

    <symbol id="icon-instagram" viewBox="0 0 14 14" fill="none">
<path d="M10.3209 4.44281C10.7457 4.44281 11.0902 4.09359 11.0902 3.66281C11.0902 3.23203 10.7457 2.88281 10.3209 2.88281C9.89596 2.88281 9.55151 3.23203 9.55151 3.66281C9.55151 4.09359 9.89596 4.44281 10.3209 4.44281Z" fill="white"/>
<path d="M7 3.75C8.76766 3.75026 10.2051 5.20779 10.2051 7C10.2051 8.79221 8.76766 10.2497 7 10.25C5.23212 10.25 3.79395 8.79238 3.79395 7C3.79395 5.20763 5.23212 3.75 7 3.75ZM6.99805 5.375C6.11422 5.37514 5.39551 6.1039 5.39551 7C5.39551 7.8961 6.11422 8.62486 6.99805 8.625C7.88199 8.625 8.60156 7.89619 8.60156 7C8.60156 6.10381 7.88199 5.375 6.99805 5.375Z" fill="white"/>
<path d="M10.2061 0.5C11.8536 0.500291 13.4111 2.07965 13.4111 3.75V10.25C13.4111 11.9203 11.8536 13.4997 10.2061 13.5H3.79492C2.14725 13.5 0.588867 11.9205 0.588867 10.25V3.75C0.588867 2.0795 2.14725 0.5 3.79492 0.5H10.2061ZM3.79492 2.125C3.04568 2.12519 2.19238 2.9904 2.19238 3.75V10.25C2.19238 11.0242 3.03126 11.8748 3.79492 11.875H10.2061C10.9554 11.875 11.8096 11.0097 11.8096 10.25V3.75C11.8096 2.99031 10.9554 2.125 10.2061 2.125H3.79492Z" fill="white"/>
    </symbol>

    <symbol id="icon-twitter" viewBox="0 0 16 12" fill="none">
<path d="M15.0453 1.50267C14.5169 1.77253 13.9885 1.86249 13.3721 1.95245C13.9885 1.59262 14.4288 1.05288 14.605 0.333233C14.0766 0.693058 13.4601 0.872971 12.7556 1.05288C12.2272 0.513146 11.4346 0.15332 10.642 0.15332C9.14492 0.15332 7.82394 1.50267 7.82394 3.12188C7.82394 3.39175 7.82394 3.57166 7.912 3.75157C5.53424 3.66162 3.3326 2.49218 1.92355 0.693058C1.65936 1.14284 1.57129 1.59262 1.57129 2.22232C1.57129 3.21184 2.09968 4.1114 2.89227 4.65114C2.45195 4.65114 2.01162 4.47122 1.57129 4.29131C1.57129 5.73061 2.54001 6.90005 3.86099 7.16991C3.5968 7.25987 3.3326 7.25987 3.0684 7.25987C2.89227 7.25987 2.71614 7.25987 2.54001 7.16991C2.89227 8.33935 3.94906 9.23891 5.27004 9.23891C4.30132 10.0485 3.0684 10.4983 1.65936 10.4983C1.39516 10.4983 1.21903 10.4983 0.954834 10.4983C2.27582 11.3079 3.77293 11.8476 5.3581 11.8476C10.642 11.8476 13.5482 7.34983 13.5482 3.4817C13.5482 3.39175 13.5482 3.21184 13.5482 3.12188C14.1646 2.6721 14.693 2.13236 15.0453 1.50267Z" fill="white"/>

    </symbol>


    <symbol id="icon-pin" viewBox="0 0 12 13" fill="none">
<path fill-rule="evenodd" clip-rule="evenodd" d="M8.22959 4.0025C8.59859 3.848 8.83709 3.4895 8.83709 3.0895V2.677C8.83709 2.1315 8.39309 1.6875 7.84759 1.6875H4.15259C3.60709 1.6875 3.16309 2.1315 3.16309 2.677V3.0895C3.16309 3.4895 3.40159 3.848 3.78759 4.01C3.96959 4.086 4.08809 4.263 4.08809 4.461V5.3925C4.08809 5.4715 4.06909 5.54999 4.03209 5.61949L3.27559 7.06699C3.20159 7.20849 3.16309 7.36649 3.16309 7.52499C3.16309 8.07049 3.60709 8.51449 4.15259 8.51449H5.62509V10.9385C5.62509 11.1455 5.79309 11.3135 6.00009 11.3135C6.20709 11.3135 6.37509 11.1455 6.37509 10.9385V8.51449H7.84759C8.39309 8.51449 8.83709 8.07099 8.83709 7.52549C8.83709 7.36699 8.79859 7.20849 8.72459 7.06699L7.96759 5.61849C7.93059 5.54949 7.91159 5.4715 7.91159 5.3925V4.461C7.91159 4.263 8.03009 4.086 8.22959 4.0025Z" fill="#71717A"/>

    </symbol>

    <symbol id="icon-location-zinc" viewBox="0 0 12 13" fill="none">
<path fill-rule="evenodd" clip-rule="evenodd" d="M6.2503 7.1125C5.4898 7.1125 4.8708 6.4935 4.8708 5.733C4.8708 4.9725 5.4898 4.3535 6.2503 4.3535C7.0108 4.3535 7.6293 4.9725 7.6293 5.733C7.6293 6.4935 7.0108 7.1125 6.2503 7.1125ZM6.2503 1.75C4.0378 1.75 2.2373 3.5505 2.2373 5.7635C2.2373 8.5815 5.5333 11.25 6.2503 11.25C6.9673 11.25 10.2633 8.5815 10.2633 5.7635C10.2633 3.5505 8.4628 1.75 6.2503 1.75Z" fill="#71717A"/>

    </symbol>


    <symbol id="icon-clock" viewBox="0 0 17 17" fill="none">
<path fill-rule="evenodd" clip-rule="evenodd" d="M8.50033 1.41699C12.4061 1.41699 15.5837 4.59458 15.5837 8.50033C15.5837 12.4061 12.4061 15.5837 8.50033 15.5837C4.59458 15.5837 1.41699 12.4061 1.41699 8.50033C1.41699 4.59458 4.59458 1.41699 8.50033 1.41699ZM8.50033 2.47949C5.18037 2.47949 2.47949 5.18037 2.47949 8.50033C2.47949 11.8203 5.18037 14.5212 8.50033 14.5212C11.8203 14.5212 14.5212 11.8203 14.5212 8.50033C14.5212 5.18037 11.8203 2.47949 8.50033 2.47949ZM8.26034 5.02623C8.5543 5.02623 8.79159 5.26423 8.79159 5.55748V8.68973L11.2035 10.1277C11.4549 10.2785 11.5378 10.6044 11.3876 10.8565C11.2878 11.023 11.1114 11.1158 10.9308 11.1158C10.838 11.1158 10.7445 11.0917 10.6588 11.0414L7.98834 9.44836C7.82826 9.35203 7.72909 9.17848 7.72909 8.99148V5.55748C7.72909 5.26423 7.96709 5.02623 8.26034 5.02623Z" fill="var(--primary-600)"/>
    </symbol>

    <symbol id="icon-calender" viewBox="0 0 17 17" fill="none">
<path fill-rule="evenodd" clip-rule="evenodd" d="M2.7041 6.8457C2.7041 6.5523 2.94195 6.31445 3.23535 6.31445H14.598C14.8914 6.31445 15.1293 6.5523 15.1293 6.8457C15.1293 7.13912 14.8914 7.37698 14.598 7.37698H3.23535C2.94195 7.37698 2.7041 7.13912 2.7041 6.8457Z" fill="#EC1E28"/>
<path fill-rule="evenodd" clip-rule="evenodd" d="M11.491 1.59375C11.7844 1.59375 12.0222 1.8316 12.0222 2.125V4.2229C12.0222 4.5163 11.7844 4.75415 11.491 4.75415C11.1975 4.75415 10.9597 4.5163 10.9597 4.2229V2.125C10.9597 1.8316 11.1975 1.59375 11.491 1.59375Z" fill="#EC1E28"/>
<path fill-rule="evenodd" clip-rule="evenodd" d="M6.34082 1.59375C6.63422 1.59375 6.87207 1.8316 6.87207 2.125V4.2229C6.87207 4.5163 6.63422 4.75415 6.34082 4.75415C6.04741 4.75415 5.80957 4.5163 5.80957 4.2229V2.125C5.80957 1.8316 6.04741 1.59375 6.34082 1.59375Z" fill="#EC1E28"/>
<path fill-rule="evenodd" clip-rule="evenodd" d="M3.62924 3.50774C4.28021 2.88895 5.18624 2.60059 6.21816 2.60059H11.6159C12.6502 2.60059 13.5567 2.88872 14.2067 3.50822C14.8607 4.13158 15.186 5.02459 15.183 6.09227C15.183 6.09212 15.183 6.09243 15.183 6.09227V11.9094C15.183 12.9772 14.8563 13.871 14.2022 14.4954C13.5519 15.1162 12.6454 15.4062 11.6104 15.4062H6.21816C5.18305 15.4062 4.27588 15.11 3.62552 14.4796C2.97252 13.8467 2.64551 12.9421 2.64551 11.8611V6.09122C2.64551 5.02294 2.97416 4.13044 3.62924 3.50774ZM4.36127 4.27783C3.96378 4.65567 3.70801 5.24286 3.70801 6.09122V11.8611C3.70801 12.7272 3.96542 13.3294 4.36499 13.7167C4.7672 14.1066 5.38073 14.3437 6.21816 14.3437H11.6104C12.4534 14.3437 13.0677 14.1095 13.4685 13.7269C13.8656 13.3479 14.1205 12.7589 14.1205 11.9094V6.09122V6.08969C14.123 5.24095 13.8693 4.65444 13.4737 4.27735C13.0739 3.89632 12.4597 3.66309 11.6159 3.66309H6.21816C5.37754 3.66309 4.76287 3.89609 4.36127 4.27783Z" fill="#EC1E28"/>
<path fill-rule="evenodd" clip-rule="evenodd" d="M8.11534 9.18624C8.37877 9.31544 8.48757 9.63376 8.35837 9.89712L7.34524 11.9627C7.21604 12.226 6.89776 12.3349 6.63434 12.2057C6.37092 12.0765 6.26212 11.7582 6.39132 11.4948L7.40446 9.42927C7.53366 9.16584 7.85191 9.05704 8.11534 9.18624Z" fill="#EC1E28"/>
<path fill-rule="evenodd" clip-rule="evenodd" d="M11.0138 9.18624C11.2772 9.31544 11.386 9.63376 11.2568 9.89712L10.2437 11.9627C10.1145 12.226 9.79621 12.3349 9.53278 12.2057C9.26935 12.0765 9.16055 11.7582 9.28975 11.4948L10.3029 9.42927C10.4321 9.16584 10.7503 9.05704 11.0138 9.18624Z" fill="#EC1E28"/>
    </symbol>

    <symbol id="icon-airplane" viewBox="0 0 17 17" fill="none">
<path d="M10.9249 15.4084C10.8552 15.4085 10.7862 15.3948 10.7218 15.3682C10.6574 15.3416 10.5988 15.3026 10.5495 15.2533L9.51676 14.2198C9.46101 14.164 9.4183 14.0964 9.39188 14.022C9.36539 13.9477 9.35582 13.8684 9.36376 13.7898L9.5373 12.1104L8.21909 11.0252L5.20016 13.9953C5.15051 14.0479 5.08984 14.0889 5.02249 14.1154C4.95515 14.1418 4.88277 14.1531 4.81057 14.1483C4.73873 14.1459 4.66811 14.1289 4.60299 14.0985C4.53786 14.0681 4.47957 14.0248 4.43162 13.9712C4.32891 13.8564 4.22549 13.7459 4.12349 13.6368C3.86953 13.3779 3.63291 13.1025 3.41516 12.8123C3.22466 12.5239 3.10943 12.1923 3.07998 11.8478C3.05053 11.5033 3.10781 11.157 3.24657 10.8403C3.64891 9.68009 4.05337 8.52055 4.48474 7.36951C4.492 7.35053 4.49815 7.33119 4.50316 7.31143C4.49607 7.30576 4.48191 7.28947 4.45924 7.26822C3.88478 6.71078 3.23524 6.07966 2.63387 5.41241C1.81007 4.493 1.34966 3.06995 2.29953 2.12079C3.24941 1.17162 4.67174 1.63061 5.59257 2.45795C6.22157 3.02461 6.80453 3.61891 7.44701 4.28191C7.46216 4.2984 7.47853 4.31378 7.49588 4.32795C7.50367 4.3237 7.52209 4.31803 7.5483 4.30882C8.69934 3.87745 9.85888 3.47228 11.0191 3.06995C11.3355 2.93152 11.6816 2.87437 12.0257 2.90369C12.3699 2.933 12.7012 3.04786 12.9897 3.23783C13.2772 3.45252 13.5499 3.68608 13.8064 3.93695C13.9176 4.04108 14.031 4.14945 14.1485 4.25145C14.2023 4.29932 14.2457 4.35761 14.2763 4.42279C14.3069 4.48797 14.3239 4.55867 14.3262 4.63061C14.3286 4.70255 14.3164 4.77422 14.2901 4.84128C14.264 4.90833 14.2245 4.96938 14.174 5.0207L11.2061 8.03818L12.2977 9.35072L13.9708 9.18497C14.0485 9.17718 14.127 9.18688 14.2005 9.21337C14.2741 9.23986 14.3408 9.28243 14.3958 9.33797L15.4285 10.3707C15.4857 10.4276 15.5292 10.4967 15.5557 10.5729C15.5821 10.6491 15.5909 10.7303 15.5814 10.8103C15.5718 10.8904 15.5441 10.9673 15.5005 11.0351C15.4568 11.1029 15.3983 11.1598 15.3293 11.2016L12.8601 12.6827L11.379 15.1506C11.3374 15.2199 11.2806 15.2788 11.2129 15.323C11.1451 15.367 11.0681 15.395 10.988 15.4048C10.9671 15.4074 10.946 15.4086 10.9249 15.4084ZM10.4468 13.6475L10.8201 14.0201L12.0186 12.0226C12.0636 11.9479 12.1261 11.8852 12.2006 11.8398L14.1988 10.6406L13.8255 10.2673L12.122 10.4359C12.0355 10.4445 11.9483 10.4318 11.8679 10.3988C11.7875 10.3658 11.7164 10.3136 11.6609 10.2468L10.082 8.34772C9.99885 8.24671 9.95592 8.11857 9.96145 7.98788C9.9669 7.8572 10.0205 7.7331 10.1118 7.63938L13.0322 4.67078C12.8247 4.46779 12.6042 4.27851 12.372 4.10412C12.2063 3.98583 11.9428 3.87533 11.3669 4.0765C10.2152 4.47529 9.06413 4.87762 7.9223 5.30475C7.71284 5.39734 7.47909 5.41977 7.25583 5.36872C7.03257 5.31766 6.8318 5.19584 6.68341 5.02141C6.05512 4.37329 5.48632 3.79245 4.88212 3.25058C4.43232 2.84683 3.53628 2.38641 3.05107 2.87516C2.56587 3.36391 3.02203 4.25641 3.42649 4.7062C4.00307 5.3437 4.63916 5.9642 5.19732 6.50891C5.3716 6.65725 5.49333 6.85789 5.54438 7.08099C5.59543 7.30406 5.57308 7.53774 5.48066 7.74705C5.05566 8.88818 4.6512 10.0392 4.2517 11.1917C4.05195 11.7668 4.16245 12.0311 4.28074 12.1968C4.45511 12.4289 4.6444 12.6495 4.84741 12.857L7.81605 9.9358C7.90955 9.84429 8.03351 9.79052 8.16426 9.78478C8.29495 9.77905 8.42316 9.82169 8.52438 9.90463L10.4333 11.4736C10.5008 11.5294 10.5535 11.601 10.5868 11.6821C10.6201 11.7632 10.6327 11.8511 10.6239 11.9383L10.4468 13.6475Z" fill="#EC1E28"/>

    </symbol>

    <symbol id="icon-star" viewBox="0 0 17 17" fill="none">
<path fill-rule="evenodd" clip-rule="evenodd" d="M8.50034 2.6543C7.99388 2.6543 7.70418 3.2918 7.32026 4.26363C7.08368 4.86501 6.83786 5.48551 6.44474 5.89209C5.93403 6.41909 5.12015 6.46017 4.33249 6.49913C3.29265 6.55013 2.79045 6.62521 2.68065 7.09273C2.56024 7.60627 2.90095 7.95335 3.65107 8.57244C4.20924 9.03285 4.84178 9.55419 5.01036 10.3213C5.15486 10.9794 4.97849 11.67 4.80778 12.3372C4.54499 13.3657 4.46778 13.8849 4.89561 14.2086C5.28945 14.5054 5.70736 14.2887 6.56586 13.7206C7.1708 13.3211 7.79484 12.9074 8.50034 12.9074C9.20513 12.9074 9.82988 13.3211 10.4341 13.7206C11.2919 14.288 11.7091 14.5054 12.1051 14.2086C12.5329 13.8849 12.4557 13.365 12.1922 12.3365C12.0222 11.67 11.8458 10.9794 11.9903 10.3206C12.1582 9.55419 12.7907 9.03285 13.3489 8.57244C14.099 7.95406 14.4397 7.60627 14.3193 7.09202C14.2095 6.62521 13.708 6.55013 12.6682 6.49913C11.8805 6.46017 11.0659 6.41909 10.5559 5.89209C10.1628 5.48551 9.91701 4.86501 9.68043 4.26363C9.2958 3.29109 9.00609 2.6543 8.50034 2.6543ZM5.25545 15.4093C4.92749 15.4093 4.59174 15.3094 4.25599 15.0565C3.21615 14.2724 3.52782 13.0534 3.77786 12.0744C3.91811 11.5262 4.06261 10.9616 3.97195 10.5494C3.8827 10.14 3.44211 9.77731 2.97603 9.39269C2.25707 8.80052 1.36174 8.06244 1.64649 6.84976C1.95178 5.5528 3.29761 5.48621 4.28007 5.43805C4.8347 5.41042 5.46299 5.37926 5.68115 5.1533C5.92765 4.899 6.13307 4.37838 6.33211 3.87405C6.73374 2.85688 7.23313 1.5918 8.50034 1.5918C9.76684 1.5918 10.2669 2.85688 10.6686 3.87405C10.8676 4.37838 11.073 4.899 11.3195 5.1533C11.5377 5.37926 12.166 5.41042 12.7206 5.43805C13.7031 5.48621 15.0489 5.5528 15.3535 6.84905C15.6382 8.06244 14.7429 8.80052 14.0246 9.39269C13.5578 9.77731 13.1173 10.14 13.028 10.5494C12.9373 10.9609 13.0818 11.5262 13.2221 12.0737C13.4728 13.0534 13.7838 14.2717 12.7447 15.0565C11.707 15.8371 10.6763 15.155 9.84759 14.6067C9.37443 14.2936 8.88497 13.9699 8.50034 13.9699C8.11501 13.9699 7.62555 14.2936 7.15238 14.6067C6.59207 14.9772 5.9397 15.4093 5.25545 15.4093Z" fill="#EC1E28"/>

    </symbol>

    <symbol id="icon-map" viewBox="0 0 17 17" fill="none">
<path fill-rule="evenodd" clip-rule="evenodd" d="M2.82631 2.76064C3.52365 2.0125 4.51674 1.59375 5.68937 1.59375H11.664C12.8393 1.59375 13.8328 2.01226 14.5299 2.76084C15.2229 3.50512 15.5833 4.53255 15.5833 5.68535V11.3146C15.5833 12.4674 15.2229 13.4949 14.5297 14.2392C13.8326 14.9878 12.839 15.4062 11.6633 15.4062H5.68937C5.54869 15.4062 5.41061 15.4002 5.27535 15.3884C5.24386 15.3882 5.21195 15.3852 5.17991 15.3792L5.1784 15.3789C4.22564 15.2747 3.41717 14.8766 2.82374 14.2391C2.13088 13.4948 1.77075 12.4674 1.77075 11.3146V5.68535C1.77075 5.15121 1.84841 4.6441 2.00067 4.17965L2.00112 4.17745C2.01091 4.12997 2.02676 4.08528 2.0477 4.04402C2.22478 3.56025 2.48553 3.12624 2.82631 2.76064ZM2.90683 4.90671C2.85865 5.14953 2.83325 5.40958 2.83325 5.68535V11.3146C2.83325 12.2481 3.12268 13.0008 3.60145 13.5151C3.91902 13.8563 4.33752 14.1118 4.85305 14.2436L6.47192 5.64208L2.90683 4.90671ZM7.16712 4.70061L3.28933 3.90073C3.38197 3.74873 3.48719 3.6099 3.60353 3.48508C4.07936 2.9746 4.77995 2.65625 5.68937 2.65625H11.664C12.5768 2.65625 13.2773 2.97482 13.7523 3.48489C14.2312 3.99923 14.5208 4.75198 14.5208 5.68535V6.21745L7.22889 4.71336C7.21585 4.70985 7.20253 4.70681 7.18901 4.70427C7.18171 4.70289 7.17441 4.70168 7.16712 4.70061ZM7.51264 5.85675L5.91536 14.3438H11.6633C12.5765 14.3438 13.2772 14.0251 13.7522 13.5151C14.2312 13.0007 14.5208 12.248 14.5208 11.3146V7.30235L7.51264 5.85675ZM10.5363 8.84751C9.78214 8.84751 9.17092 9.45873 9.17092 10.2129C9.17092 10.6934 9.46637 11.2296 9.87139 11.6856C10.066 11.9046 10.2666 12.0828 10.4279 12.2021C10.4687 12.2323 10.5051 12.2572 10.5363 12.2773C10.5675 12.2572 10.6039 12.2323 10.6448 12.2021C10.806 12.0828 11.0066 11.9046 11.2012 11.6856C11.6062 11.2296 11.9017 10.6934 11.9017 10.2129C11.9017 9.45873 11.2905 8.84751 10.5363 8.84751ZM10.4267 12.3377C10.4267 12.3377 10.4295 12.3364 10.4347 12.3347C10.4291 12.3371 10.4267 12.3377 10.4267 12.3377ZM10.638 12.3347C10.6431 12.3364 10.646 12.3377 10.646 12.3377C10.646 12.3377 10.6434 12.3371 10.638 12.3347ZM8.10842 10.2129C8.10842 8.87195 9.19536 7.78501 10.5363 7.78501C11.8773 7.78501 12.9642 8.87195 12.9642 10.2129C12.9642 11.0819 12.463 11.8651 11.9955 12.3912C11.7539 12.6632 11.4992 12.8917 11.2764 13.0564C11.1656 13.1384 11.0547 13.2104 10.9507 13.2647C10.8725 13.3055 10.7141 13.383 10.5363 13.383C10.3585 13.383 10.2001 13.3055 10.1219 13.2647C10.0179 13.2104 9.90702 13.1384 9.79617 13.0564C9.5734 12.8917 9.31875 12.6632 9.07707 12.3912C8.60964 11.8651 8.10842 11.0819 8.10842 10.2129ZM10.5362 9.66521C10.8297 9.66521 11.0675 9.90307 11.0675 10.1965V10.2185C11.0675 10.5119 10.8297 10.7497 10.5362 10.7497C10.2428 10.7497 10.005 10.5119 10.005 10.2185V10.1965C10.005 9.90307 10.2428 9.66521 10.5362 9.66521Z" fill="#EC1E28"/>

    </symbol>


</svg>