<svg preserveAspectRatio="none" xmlns="http://www.w3.org/2000/svg" width="1282" height="530" viewBox="0 0 1282 530" fill="none">
<path d="M1281 481C1281 497.802 1281 506.202 1277.73 512.62C1274.85 518.265 1270.26 522.854 1264.62 525.73C1258.2 529 1249.8 529 1233 529H49C32.1985 529 23.7976 529 17.3802 525.73C11.7355 522.854 7.146 518.265 4.26978 512.62C1 506.202 1 497.802 1 481V157.282C1 141.799 1 134.057 3.91211 127.939C6.47681 122.551 10.59 118.05 15.7257 115.012C21.5575 111.562 29.2682 110.867 44.6895 109.476L1228.69 2.71674C1246.83 1.08069 1255.91 0.262634 1262.91 3.29272C1269.06 5.95477 1274.15 10.6014 1277.35 16.491C1281 23.195 1281 32.3043 1281 50.5228V481Z" fill="#F4F4F5" stroke="url(#paint0_linear_438_301)" stroke-width="2"/>
<defs>
<linearGradient id="paint0_linear_438_301" x1="1.87766" y1="529" x2="1280.12" y2="-2.00001" gradientUnits="userSpaceOnUse">
<stop stop-color="white"/>
<stop offset="1" stop-color="#E1E1E1"/>
</linearGradient>
</defs>
</svg>