<svg preserveAspectRatio="none" xmlns="http://www.w3.org/2000/svg" width="290" height="630" viewBox="0 0 290 630" fill="none">
<path d="M289 581C289 597.802 289 606.202 285.73 612.62C282.854 618.265 278.265 622.854 272.62 625.73C266.202 629 257.802 629 241 629H49C32.1984 629 23.7976 629 17.3803 625.73C11.7354 622.854 7.14603 618.265 4.26981 612.62C1 606.202 1 597.802 1 581V153.41C1 142.528 1 137.086 2.66919 132.294C4.14511 128.056 6.55289 124.203 9.71518 121.02C13.2915 117.419 18.1826 115.034 27.9649 110.265L219.965 16.6574C242.857 5.49658 254.303 -0.0838013 263.593 1.35541C271.706 2.6123 278.95 7.13947 283.635 13.8815C289 21.6011 289 34.335 289 59.8028V581Z" fill="#F4F4F5" stroke="url(#paint0_linear_209_2193)" stroke-width="2"/>
<defs>
<linearGradient id="paint0_linear_209_2193" x1="0.999999" y1="603.843" x2="363.472" y2="554.429" gradientUnits="userSpaceOnUse">
<stop stop-color="white"/>
<stop offset="1" stop-color="#E1E1E1"/>
</linearGradient>
</defs>
</svg>